<svg width="40" height="40" viewBox="0 0 40 40" fill="none" xmlns="http://www.w3.org/2000/svg">
<path d="M39.4602 35.2646C39.7827 35.5871 39.7827 36.11 39.4602 36.4326L36.5402 39.3525C36.2177 39.675 35.6948 39.675 35.3723 39.3525L18.4924 22.4726C18.1699 22.1501 18.1699 21.6272 18.4924 21.3047L21.4123 18.3847C21.7348 18.0622 22.2577 18.0622 22.5803 18.3847L39.4602 35.2646Z" fill="black"/>
<path d="M18.1445 0C28.1652 0.000129881 36.2891 8.1238 36.2891 18.1445C36.2889 28.1652 28.1652 36.2889 18.1445 36.2891C8.1238 36.2891 0.000129889 28.1652 0 18.1445C0 8.12372 8.12372 0 18.1445 0Z" fill="#00AEFF"/>
<circle cx="18.1444" cy="18.1444" r="12.546" fill="white"/>
</svg>
