<svg width="28" height="28" viewBox="0 0 28 28" fill="none" xmlns="http://www.w3.org/2000/svg">
<path d="M21 0C24.866 0 28 3.13401 28 7V21C28 24.866 24.866 28 21 28H7C3.13401 28 0 24.866 0 21V7C0 3.13401 3.13401 0 7 0H21ZM20.6982 10.0645C21.038 8.00167 20.3572 7.82342 18.1367 8.75488C17.2901 9.1108 11.1577 11.6821 6.41895 13.791C5.23736 14.317 4.94833 14.8645 6.16504 15.2871C6.48102 15.397 7.29301 15.6843 8.12402 15.9258C9.22388 16.2454 9.83664 16.0447 10.4746 15.6064C10.8969 15.3162 14.2152 13.0879 16.6084 11.4824C16.8767 11.3023 17.1687 11.6715 16.9365 11.8965C15.1614 13.6095 12.8826 15.8101 12.5342 16.1553C11.5574 17.122 12.3356 17.6134 12.9004 18.0215C13.5191 18.4693 16.3707 20.3767 16.9355 20.7539C18.1099 21.5376 18.8565 21.3224 19.1895 19.5107C19.7505 16.4555 20.4543 11.5471 20.6982 10.0645Z" fill="white"/>
</svg>
