<svg width="28" height="28" viewBox="0 0 28 28" fill="none" xmlns="http://www.w3.org/2000/svg">
<path d="M21 0C24.866 0 28 3.13401 28 7V21C28 24.866 24.866 28 21 28H7C3.13401 28 0 24.866 0 21V7C0 3.13401 3.13401 0 7 0H21ZM6.2998 9.09961C6.42486 15.1018 9.42606 18.7089 14.6875 18.709H14.9863V15.2754C16.9194 15.4679 18.3809 16.8817 18.9678 18.709H21.7002C20.9499 15.9774 18.9773 14.4677 17.7461 13.8906C18.9773 13.1788 20.7094 11.4466 21.123 9.09961H18.6406C18.102 11.004 16.506 12.7357 14.9863 12.8994V9.09961H12.5039V15.7559C10.9649 15.3709 9.02211 13.5047 8.93555 9.09961H6.2998Z" fill="white"/>
</svg>
