<svg width="28" height="28" viewBox="0 0 28 28" fill="none" xmlns="http://www.w3.org/2000/svg">
<path d="M21 0C24.866 0 28 3.13401 28 7V21C28 24.866 24.866 28 21 28H7C3.13401 28 0 24.866 0 21V7C0 3.13401 3.13401 0 7 0H21ZM13.9453 7.7002C11.5883 7.70021 9.37372 7.89295 8.19434 8.16211C7.40859 8.3546 6.72833 8.93163 6.58594 9.81738C6.44218 10.7799 6.2998 12.1279 6.2998 13.8604C6.29982 15.5926 6.44247 16.9399 6.62109 17.9023C6.76483 18.749 7.44284 19.366 8.22852 19.5586C9.47898 19.8278 11.6229 20.0195 13.9814 20.0195C16.3402 20.0195 18.4848 19.8278 19.7354 19.5586C20.521 19.366 21.199 18.788 21.3428 17.9023C21.4851 16.9399 21.6639 15.5535 21.7002 13.8604C21.6276 12.1279 21.4492 10.7799 21.2705 9.81738C21.1281 8.97071 20.4493 8.35461 19.6621 8.16211C18.4841 7.89292 16.304 7.7002 13.9453 7.7002ZM16.375 13.8604L12.0166 16.5547V11.165L16.375 13.8604Z" fill="white"/>
</svg>
