<svg width="46" height="46" viewBox="0 0 46 46" fill="none" xmlns="http://www.w3.org/2000/svg">
<path d="M0.0178223 18.5849V30.3396C0.0178223 30.8919 0.465538 31.3396 1.01782 31.3396H44.9822C45.5345 31.3396 45.9822 30.8919 45.9822 30.3396V21.5733C45.9822 21.1551 45.7219 20.7811 45.3298 20.6357L35.9693 17.1652C35.8764 17.1307 35.7891 17.0826 35.7103 17.0225L26.7771 10.205C26.6028 10.072 26.3896 10 26.1704 10H1.01785C0.465562 10 0.0178474 10.4477 0.0178457 11L0.0178223 18.5849Z" fill="#00AEFF"/>
<path d="M3.69681 17.8303L3.69679 13.9435C3.69679 13.3912 4.14451 12.9435 4.69679 12.9435H25.1852C25.4068 12.9435 25.6221 13.0171 25.7973 13.1528L30.8178 17.0396C31.5716 17.6231 31.1589 18.8303 30.2056 18.8303H4.69681C4.14452 18.8303 3.69681 18.3826 3.69681 17.8303Z" fill="white"/>
<circle cx="8.91544" cy="30.1132" r="5.8868" fill="#171717"/>
<circle cx="37.3015" cy="30.1132" r="5.8868" fill="#171717"/>
</svg>
