<svg width="109" height="30" viewBox="0 0 109 30" fill="none" xmlns="http://www.w3.org/2000/svg">
<path fill-rule="evenodd" clip-rule="evenodd" d="M16.5253 17.8545L20.39 24.5481C20.481 24.7057 20.481 24.8998 20.3901 25.0574L17.6842 29.7455C17.4882 30.0851 16.998 30.0852 16.8019 29.7455L4.34442 8.16839C4.14835 7.82879 4.39344 7.4043 4.78557 7.4043H10.198C10.38 7.4043 10.5482 7.50139 10.6392 7.659L16.5253 17.8545ZM21.8181 22.5835C21.622 22.9231 21.1318 22.9231 20.9358 22.5834L18.143 17.7449C18.0521 17.5873 18.0521 17.3932 18.1431 17.2356L23.6722 7.65899C23.7632 7.50139 23.9314 7.4043 24.1134 7.4043H29.7006C30.0927 7.4043 30.3378 7.82882 30.1417 8.16842L21.8181 22.5835ZM23.1157 5.71206C23.0248 5.86969 22.8566 5.9668 22.6746 5.9668H19.1282C18.7361 5.9668 18.491 6.39122 18.687 6.73082L20.4594 9.80198C20.5504 9.95957 20.5504 10.1537 20.4594 10.3113L17.5964 15.271C17.4003 15.6106 16.9101 15.6106 16.714 15.271L11.5419 6.3125L11.4791 6.20372C11.388 6.04622 11.2199 5.94922 11.038 5.94922H3.35656C3.17457 5.94922 3.0064 5.85212 2.9154 5.69451L0.0689998 0.764088C-0.127056 0.424488 0.11803 0 0.51016 0H25.5308C25.9229 0 26.168 0.424467 25.972 0.764067L23.1157 5.71206ZM31.5699 5.69451C31.4789 5.85212 31.3107 5.94922 31.1287 5.94922H25.5414C25.1493 5.94922 24.9042 5.52473 25.1003 5.18513L27.9467 0.254712C28.0376 0.0970964 28.2058 0 28.3878 0H33.9751C34.3672 0 34.6123 0.424488 34.4163 0.764089L31.5699 5.69451Z" fill="white"/>
<path d="M39.6403 2.7073H47.3751C50.6843 2.7073 53.1889 3.17195 54.8889 4.10126C56.5888 5.03057 57.4388 6.66252 57.4388 8.99712C57.4388 9.93776 57.2858 10.7877 56.9798 11.547C56.6851 12.3064 56.2545 12.9297 55.6878 13.417C55.1212 13.9043 54.4299 14.2216 53.6139 14.369V14.539C54.4412 14.709 55.1892 15.0036 55.8578 15.4229C56.5265 15.8309 57.0591 16.4316 57.4558 17.2249C57.8638 18.0069 58.0678 19.0495 58.0678 20.3528C58.0678 21.8601 57.6994 23.152 56.9628 24.2287C56.2262 25.3053 55.1722 26.1326 53.8009 26.7106C52.4409 27.2773 50.8203 27.5606 48.939 27.5606H39.6403V2.7073ZM44.9101 12.55H47.9701C49.5 12.55 50.5597 12.312 51.149 11.836C51.7383 11.3487 52.0329 10.6347 52.0329 9.6941C52.0329 8.74213 51.6816 8.06215 50.979 7.65416C50.2877 7.23484 49.1884 7.02518 47.6811 7.02518H44.9101V12.55ZM44.9101 16.7319V23.2087H48.3441C49.9307 23.2087 51.0356 22.9027 51.659 22.2907C52.2823 21.6788 52.5939 20.8571 52.5939 19.8258C52.5939 19.2138 52.4579 18.6755 52.1859 18.2109C51.9139 17.7462 51.455 17.3835 50.809 17.1229C50.1743 16.8622 49.296 16.7319 48.1741 16.7319H44.9101ZM72.6194 27.5606H67.3495V7.09318H60.6007V2.7073H79.3682V7.09318H72.6194V27.5606ZM83.1931 2.7073H87.9359V14.709C87.9359 15.2983 87.9246 15.9499 87.9019 16.6639C87.8906 17.3779 87.8679 18.0805 87.8339 18.7718C87.8113 19.4518 87.7886 20.0468 87.7659 20.5568C87.7433 21.0668 87.7206 21.4068 87.6979 21.5768H87.7999L99.2746 2.7073H105.581V27.5606H100.89V15.6269C100.89 14.9923 100.901 14.301 100.924 13.553C100.946 12.805 100.975 12.0797 101.009 11.3771C101.054 10.6744 101.094 10.0681 101.128 9.5581C101.162 9.03679 101.184 8.69113 101.196 8.52113H101.06L89.5339 27.5606H83.1931V2.7073Z" fill="white"/>
</svg>
