<svg width="36" height="35" viewBox="0 0 36 35" fill="none" xmlns="http://www.w3.org/2000/svg">
<path d="M32.597 0H22.1851C20.46 0 19.0615 1.39847 19.0615 3.12357V15.4314C19.0615 16.268 19.3972 17.0697 19.9932 17.6568L24.8272 22.4178C26.0476 23.6199 28.0085 23.6147 29.2226 22.4062L34.8006 16.854C35.3895 16.2678 35.7206 15.4711 35.7206 14.6402V3.12357C35.7206 1.39847 34.3221 0 32.597 0Z" fill="white"/>
<path d="M3.12357 0H13.5355C15.2606 0 16.659 1.39847 16.659 3.12357V17.0471C16.659 17.8756 16.9881 18.6701 17.5739 19.2558L22.7799 24.4618C23.9997 25.6816 23.9997 27.6593 22.7799 28.8792L18.8677 32.7913C17.6479 34.0111 15.6702 34.0111 14.4503 32.7913L8.32952 26.6705L0.914872 19.2558C0.329089 18.6701 0 17.8756 0 17.0471V3.12357C0 1.39847 1.39847 0 3.12357 0Z" fill="white"/>
</svg>
