<svg width="39" height="40" viewBox="0 0 39 40" fill="none" xmlns="http://www.w3.org/2000/svg">
<path d="M0.196997 29.8222C-0.06516 29.6225 -0.0657501 29.2282 0.195808 29.0277L12.6063 19.5138C12.935 19.2618 13.4099 19.4957 13.4105 19.9098L13.4161 23.6384C13.4165 23.9143 13.6402 24.1377 13.9161 24.1377L35.8348 24.1377C37.1465 24.1377 38.2098 25.201 38.2098 26.5127L38.2098 32.2695C38.2097 33.5811 37.1464 34.6445 35.8348 34.6445L13.9322 34.6445C13.6558 34.6445 13.4318 34.8688 13.4322 35.1452L13.4378 38.8997C13.4384 39.3138 12.9642 39.5491 12.6348 39.2982L0.196997 29.8222Z" fill="#171717"/>
<path d="M38.2215 9.57916C38.4836 9.77888 38.4843 10.1731 38.2227 10.3737L25.8132 19.8885C25.4845 20.1404 25.0095 19.9065 25.0089 19.4924L25.0034 15.7649C25.003 15.4891 24.7792 15.2657 24.5034 15.2657L2.18915 15.2657C1.09609 15.2657 0.209656 14.3792 0.209656 13.2862L0.209656 6.73831C0.209656 5.64525 1.09609 4.75882 2.18915 4.75882L24.4863 4.75882C24.7627 4.75882 24.9867 4.53451 24.9863 4.25808L24.9807 0.501663C24.9801 0.0875567 25.4543 -0.147762 25.7837 0.103197L38.2215 9.57916Z" fill="#00AEFF"/>
</svg>
