<svg width="249" height="249" viewBox="0 0 249 249" fill="none" xmlns="http://www.w3.org/2000/svg">
<g filter="url(#filter0_d_2005_43)">
<path d="M100.1 9.60965H109.71V0C104.402 1.92193e-05 100.1 4.30232 100.1 9.60965Z" fill="black"/>
<path d="M119.315 0H109.705V9.60965H119.315V0Z" fill="black"/>
<path d="M128.926 0H119.317V9.60965H128.926V0Z" fill="black"/>
<path d="M128.929 0V9.60965H138.539C138.539 4.3023 134.237 0 128.929 0Z" fill="black"/>
<path d="M167.362 4.80483C167.362 5.92466 167.362 9.60965 167.362 9.60965C167.362 9.60965 164.092 9.60965 162.557 9.60943C161.36 9.60965 157.752 9.60943 157.752 9.60943C157.752 9.60943 157.752 6.26063 157.752 4.80471C157.753 2.15124 159.904 0 162.557 0C165.211 0 167.362 2.15122 167.362 4.80483Z" fill="black"/>
<path d="M109.71 19.2218V9.61206H100.1C100.1 14.9193 104.402 19.2218 109.71 19.2218Z" fill="black"/>
<path d="M119.315 9.61182H109.705V19.2214H119.315V9.61182Z" fill="black"/>
<path d="M128.931 14.4167C128.931 13.2967 128.931 9.61182 128.931 9.61182C128.931 9.61182 132.203 9.61182 133.736 9.61182C134.934 9.61182 138.541 9.61182 138.541 9.61182C138.541 9.61182 138.541 12.961 138.541 14.4167C138.541 17.0702 136.39 19.2215 133.736 19.2215C131.083 19.2215 128.931 17.0702 128.931 14.4167Z" fill="black"/>
<path d="M152.957 9.61182C154.077 9.61182 157.761 9.61182 157.761 9.61182C157.761 9.61182 157.761 12.8826 157.761 14.4166C157.761 15.6141 157.761 19.2214 157.761 19.2214C157.761 19.2214 154.413 19.2214 152.957 19.2214C150.302 19.2214 148.152 17.0694 148.152 14.4166C148.152 11.7637 150.302 9.61182 152.957 9.61182Z" fill="black"/>
<path d="M167.361 9.61133H157.751V19.221C163.058 19.221 167.361 14.9185 167.361 9.61133Z" fill="black"/>
<path d="M80.877 28.8308H90.4867V19.2212C85.1795 19.2212 80.877 23.5235 80.877 28.8308Z" fill="black"/>
<path d="M90.4951 19.2214V28.831H100.105C100.105 23.5237 95.8023 19.2214 90.4951 19.2214Z" fill="black"/>
<path d="M119.313 28.8304V19.2207H109.704C109.704 24.528 114.006 28.8304 119.313 28.8304Z" fill="black"/>
<path d="M124.121 28.8313C123.001 28.8313 119.317 28.8313 119.317 28.8313C119.317 28.8313 119.317 25.5601 119.317 24.0265C119.317 22.8287 119.317 19.2217 119.317 19.2217C119.317 19.2217 122.666 19.2217 124.121 19.2217C126.775 19.2217 128.926 21.3729 128.926 24.0265C128.926 26.68 126.775 28.8313 124.121 28.8313Z" fill="black"/>
<path d="M143.342 19.2217C145.996 19.2217 148.147 21.3729 148.147 24.0265C148.147 26.6803 145.996 28.8313 143.342 28.8313C140.689 28.8313 138.537 26.6803 138.537 24.0265C138.537 21.3729 140.689 19.2217 143.342 19.2217Z" fill="black"/>
<path d="M90.4876 28.8213H80.8779V38.4309H90.4876V28.8213Z" fill="black"/>
<path d="M100.104 28.8213H90.4941V38.4309H100.104V28.8213Z" fill="black"/>
<path d="M138.541 33.6263C138.541 34.7462 138.541 38.4312 138.541 38.4312C138.541 38.4312 135.27 38.4312 133.736 38.431C132.538 38.4312 128.931 38.431 128.931 38.431C128.931 38.431 128.931 35.0822 128.931 33.6262C128.931 30.9728 131.083 28.8215 133.736 28.8215C136.39 28.8215 138.541 30.9727 138.541 33.6263Z" fill="black"/>
<path d="M152.957 28.8213C155.61 28.8213 157.761 30.9725 157.761 33.6261C157.761 36.2798 155.61 38.4309 152.957 38.4309C150.302 38.4309 148.152 36.2798 148.152 33.6261C148.152 30.9725 150.302 28.8213 152.957 28.8213Z" fill="black"/>
<path d="M90.4876 38.4326H80.8779V48.0422H90.4876V38.4326Z" fill="black"/>
<path d="M100.105 38.4312H90.4951V48.0408C95.8023 48.0408 100.105 43.7384 100.105 38.4312Z" fill="black"/>
<path d="M114.51 38.4329C117.163 38.4329 119.315 40.5841 119.315 43.2377C119.315 45.8915 117.163 48.0426 114.51 48.0426C111.857 48.0426 109.705 45.8915 109.705 43.2377C109.705 40.5841 111.857 38.4329 114.51 38.4329Z" fill="black"/>
<path d="M138.541 38.4329H128.931V48.0426H138.541V38.4329Z" fill="black"/>
<path d="M167.362 43.2374C167.362 44.3572 167.362 48.0422 167.362 48.0422C167.362 48.0422 164.092 48.0422 162.557 48.042C161.36 48.0422 157.752 48.042 157.752 48.042C157.752 48.042 157.752 44.6933 157.752 43.2373C157.753 40.5838 159.904 38.4326 162.557 38.4326C165.211 38.4326 167.362 40.5838 167.362 43.2374Z" fill="black"/>
<path d="M90.4876 48.0442H80.8779V57.6539H90.4876V48.0442Z" fill="black"/>
<path d="M109.71 52.8495C109.71 53.9693 109.71 57.6543 109.71 57.6543C109.71 57.6543 106.439 57.6543 104.905 57.6541C103.708 57.6543 100.1 57.6541 100.1 57.6541C100.1 57.6541 100.1 54.3052 100.1 52.8494C100.1 50.1959 102.252 48.0447 104.905 48.0447C107.559 48.0447 109.71 50.1959 109.71 52.8495Z" fill="black"/>
<path d="M119.318 57.6526H128.928V48.043C123.62 48.043 119.318 52.3453 119.318 57.6526Z" fill="black"/>
<path d="M138.541 48.0447H128.931V57.6543H138.541V48.0447Z" fill="black"/>
<path d="M148.147 48.0442H138.537V57.6539H148.147V48.0442Z" fill="black"/>
<path d="M157.761 48.0442H148.152V57.6539H157.761V48.0442Z" fill="black"/>
<path d="M167.362 48.0447H157.752V57.6543H167.362V48.0447Z" fill="black"/>
<path d="M90.4876 57.6545H80.8779V67.2642H90.4876V57.6545Z" fill="black"/>
<path d="M109.71 57.6545H100.1V67.2642H109.71V57.6545Z" fill="black"/>
<path d="M128.926 57.6543H119.317V67.2639H128.926V57.6543Z" fill="black"/>
<path d="M138.537 62.4593C138.537 61.3395 138.537 57.6545 138.537 57.6545C138.537 57.6545 141.809 57.6545 143.342 57.6545C144.539 57.6545 148.147 57.6545 148.147 57.6545C148.147 57.6545 148.147 61.0037 148.147 62.4593C148.147 65.1128 145.996 67.2642 143.342 67.2642C140.689 67.2642 138.537 65.1128 138.537 62.4593Z" fill="black"/>
<path d="M167.362 57.6543H157.752V67.2639H167.362V57.6543Z" fill="black"/>
<path d="M90.4867 76.8736V67.2639H80.877C80.877 72.5712 85.1793 76.8736 90.4867 76.8736Z" fill="black"/>
<path d="M100.104 67.2661H90.4941V76.8758H100.104V67.2661Z" fill="black"/>
<path d="M109.71 67.2666H100.1V76.8762H109.71V67.2666Z" fill="black"/>
<path d="M119.315 67.2664H109.705V76.876H119.315V67.2664Z" fill="black"/>
<path d="M128.928 67.2639H119.318V76.8736C124.626 76.8736 128.928 72.5712 128.928 67.2639Z" fill="black"/>
<path d="M148.143 76.8738H157.753V67.2642C152.445 67.2642 148.143 71.5665 148.143 76.8738Z" fill="black"/>
<path d="M167.362 67.2664H157.752V76.876H167.362V67.2664Z" fill="black"/>
<path d="M8.80483 76.8765C11.4586 76.8765 13.6096 79.0277 13.6096 81.6813C13.6096 84.3351 11.4586 86.4862 8.80483 86.4862C6.15122 86.4862 4 84.3351 4 81.6813C4 79.0277 6.15122 76.8765 8.80483 76.8765Z" fill="black"/>
<path d="M23.2222 86.4831H32.8318V76.8735C27.5246 76.8735 23.2222 81.1759 23.2222 86.4831Z" fill="black"/>
<path d="M42.4369 76.876H32.8271V86.4857H42.4369V76.876Z" fill="black"/>
<path d="M52.055 76.876H42.4453V86.4857H52.055V76.876Z" fill="black"/>
<path d="M61.6614 76.8762H52.0518V86.4858H61.6614V76.8762Z" fill="black"/>
<path d="M66.4625 86.4862C65.3425 86.4862 61.6577 86.4862 61.6577 86.4862C61.6577 86.4862 61.6577 83.2149 61.6577 81.6813C61.6577 80.4835 61.6577 76.8765 61.6577 76.8765C61.6577 76.8765 65.0069 76.8765 66.4625 76.8765C69.116 76.8765 71.2673 79.0277 71.2673 81.6813C71.2673 84.3348 69.116 86.4862 66.4625 86.4862Z" fill="black"/>
<path d="M109.705 81.6813C109.705 80.5614 109.705 76.8765 109.705 76.8765C109.705 76.8765 112.977 76.8765 114.51 76.8765C115.708 76.8765 119.315 76.8765 119.315 76.8765C119.315 76.8765 119.315 80.2256 119.315 81.6813C119.315 84.3348 117.163 86.4862 114.51 86.4862C111.857 86.4862 109.705 84.3348 109.705 81.6813Z" fill="black"/>
<path d="M133.736 76.8762C134.856 76.8762 138.541 76.8762 138.541 76.8762C138.541 76.8762 138.541 80.147 138.541 81.681C138.541 82.8785 138.541 86.4858 138.541 86.4858C138.541 86.4858 135.192 86.4858 133.736 86.4858C131.082 86.4858 128.931 84.3337 128.931 81.681C128.931 79.028 131.082 76.8762 133.736 76.8762Z" fill="black"/>
<path d="M148.147 76.876H138.537V86.4857H148.147V76.876Z" fill="black"/>
<path d="M157.761 76.876H148.152V86.4857H157.761V76.876Z" fill="black"/>
<path d="M167.362 76.8762H157.752V86.4858H167.362V76.8762Z" fill="black"/>
<path d="M181.778 76.8762C182.898 76.8762 186.583 76.8762 186.583 76.8762C186.583 76.8762 186.583 80.147 186.583 81.681C186.583 82.8785 186.583 86.4858 186.583 86.4858C186.583 86.4858 183.234 86.4858 181.778 86.4858C179.124 86.4858 176.973 84.3337 176.973 81.681C176.973 79.028 179.124 76.8762 181.778 76.8762Z" fill="black"/>
<path d="M196.199 76.876H186.589V86.4857H196.199V76.876Z" fill="black"/>
<path d="M205.804 76.8765H196.195V86.4862H205.804V76.8765Z" fill="black"/>
<path d="M215.41 76.8765H205.801V86.4862H215.41V76.8765Z" fill="black"/>
<path d="M220.222 86.4862C219.102 86.4862 215.417 86.4862 215.417 86.4862C215.417 86.4862 215.417 83.2149 215.417 81.6813C215.417 80.4835 215.417 76.8765 215.417 76.8765C215.417 76.8765 218.766 76.8765 220.222 76.8765C222.875 76.8765 225.026 79.0277 225.026 81.6813C225.026 84.3348 222.875 86.4862 220.222 86.4862Z" fill="black"/>
<path d="M18.4132 86.4883C19.5331 86.4883 23.218 86.4883 23.218 86.4883C23.218 86.4883 23.218 89.7591 23.218 91.2931C23.218 92.4906 23.218 96.0979 23.218 96.0979C23.218 96.0979 19.8696 96.0979 18.4132 96.0979C15.7586 96.0979 13.6084 93.9457 13.6084 91.2931C13.6084 88.6401 15.7586 86.4883 18.4132 86.4883Z" fill="black"/>
<path d="M32.8343 86.4878H23.2246V96.0975H32.8343V86.4878Z" fill="black"/>
<path d="M42.4369 86.4878H32.8271V96.0975H42.4369V86.4878Z" fill="black"/>
<path d="M76.0778 86.4878C77.1976 86.4878 80.8826 86.4878 80.8826 86.4878C80.8826 86.4878 80.8826 89.7586 80.8826 91.2927C80.8826 92.4901 80.8826 96.0975 80.8826 96.0975C80.8826 96.0975 77.5342 96.0975 76.0778 96.0975C73.4232 96.0975 71.2729 93.9453 71.2729 91.2927C71.2729 88.6397 73.4232 86.4878 76.0778 86.4878Z" fill="black"/>
<path d="M80.877 86.4856V96.0952H90.4867C90.4867 90.7879 86.1842 86.4856 80.877 86.4856Z" fill="black"/>
<path d="M138.537 91.2927C138.537 90.1727 138.537 86.4878 138.537 86.4878C138.537 86.4878 141.809 86.4878 143.342 86.4878C144.539 86.4878 148.147 86.4878 148.147 86.4878C148.147 86.4878 148.147 89.837 148.147 91.2927C148.147 93.9461 145.996 96.0975 143.342 96.0975C140.689 96.0975 138.537 93.9461 138.537 91.2927Z" fill="black"/>
<path d="M157.752 91.2931C157.752 90.1731 157.752 86.4883 157.752 86.4883C157.752 86.4883 161.024 86.4883 162.557 86.4883C163.756 86.4883 167.362 86.4883 167.362 86.4883C167.362 86.4883 167.362 89.8374 167.362 91.2931C167.362 93.9466 165.211 96.0979 162.557 96.0979C159.904 96.0979 157.752 93.9466 157.752 91.2931Z" fill="black"/>
<path d="M186.589 91.2927C186.589 90.1727 186.589 86.4878 186.589 86.4878C186.589 86.4878 189.86 86.4878 191.394 86.4878C192.592 86.4878 196.199 86.4878 196.199 86.4878C196.199 86.4878 196.199 89.837 196.199 91.2927C196.199 93.9461 194.047 96.0975 191.394 96.0975C188.74 96.0975 186.589 93.9461 186.589 91.2927Z" fill="black"/>
<path d="M234.631 91.2931C234.631 92.413 234.631 96.0979 234.631 96.0979C234.631 96.0979 231.36 96.0979 229.826 96.0977C228.628 96.0979 225.021 96.0977 225.021 96.0977C225.021 96.0977 225.021 92.7489 225.021 91.293C225.021 88.6395 227.172 86.4883 229.826 86.4883C232.48 86.4883 234.631 88.6395 234.631 91.2931Z" fill="black"/>
<path d="M13.6096 100.892C13.6096 102.012 13.6096 105.697 13.6096 105.697C13.6096 105.697 10.3386 105.697 8.80483 105.696C7.60701 105.697 4 105.696 4 105.696C4 105.696 4 102.348 4 100.892C4.00012 98.239 6.1512 96.0874 8.80471 96.0874C11.4583 96.0874 13.6096 98.239 13.6096 100.892Z" fill="black"/>
<path d="M42.4369 96.0874H32.8271V105.697H42.4369V96.0874Z" fill="black"/>
<path d="M66.4625 96.0874C69.1162 96.0874 71.2673 98.239 71.2673 100.892C71.2673 103.546 69.1162 105.697 66.4625 105.697C63.8089 105.697 61.6577 103.546 61.6577 100.892C61.6577 98.239 63.8089 96.0874 66.4625 96.0874Z" fill="black"/>
<path d="M90.4876 96.0872H80.8779V105.696H90.4876V96.0872Z" fill="black"/>
<path d="M104.905 96.0874C107.559 96.0874 109.71 98.239 109.71 100.892C109.71 103.546 107.559 105.697 104.905 105.697C102.252 105.697 100.1 103.546 100.1 100.892C100.1 98.239 102.252 96.0874 104.905 96.0874Z" fill="black"/>
<path d="M133.736 96.0876C136.39 96.0876 138.541 98.239 138.541 100.892C138.541 103.546 136.39 105.697 133.736 105.697C131.083 105.697 128.931 103.546 128.931 100.892C128.931 98.239 131.083 96.0876 133.736 96.0876Z" fill="black"/>
<path d="M152.957 96.0874C155.61 96.0874 157.761 98.239 157.761 100.892C157.761 103.546 155.61 105.697 152.957 105.697C150.302 105.697 148.152 103.546 148.152 100.892C148.152 98.239 150.302 96.0874 152.957 96.0874Z" fill="black"/>
<path d="M172.173 96.0876C174.828 96.0876 176.978 98.239 176.978 100.892C176.978 103.546 174.828 105.697 172.173 105.697C169.52 105.697 167.369 103.546 167.369 100.892C167.369 98.239 169.52 96.0876 172.173 96.0876Z" fill="black"/>
<path d="M200.999 96.0872C202.119 96.0872 205.804 96.0872 205.804 96.0872C205.804 96.0872 205.804 99.3579 205.804 100.892C205.804 102.09 205.804 105.696 205.804 105.696C205.804 105.696 202.456 105.696 200.999 105.696C198.345 105.696 196.195 103.545 196.195 100.892C196.195 98.239 198.345 96.0872 200.999 96.0872Z" fill="black"/>
<path d="M210.605 105.698C209.485 105.698 205.801 105.698 205.801 105.698C205.801 105.698 205.801 102.426 205.801 100.893C205.801 99.6942 205.801 96.0874 205.801 96.0874C205.801 96.0874 209.15 96.0874 210.605 96.0874C213.259 96.0874 215.41 98.2381 215.41 100.893C215.41 103.546 213.259 105.698 210.605 105.698Z" fill="black"/>
<path d="M234.63 105.693V96.084H225.02C225.02 101.391 229.322 105.693 234.63 105.693Z" fill="black"/>
<path d="M234.638 96.0837V105.694H244.248C244.248 100.386 239.946 96.0837 234.638 96.0837Z" fill="black"/>
<path d="M13.6096 105.699H4V115.308H13.6096V105.699Z" fill="black"/>
<path d="M23.218 105.699H13.6084V115.308H23.218V105.699Z" fill="black"/>
<path d="M32.8343 105.699H23.2246V115.308H32.8343V105.699Z" fill="black"/>
<path d="M42.4369 105.699H32.8271V115.308H42.4369V105.699Z" fill="black"/>
<path d="M47.2502 115.308C46.1302 115.308 42.4453 115.308 42.4453 115.308C42.4453 115.308 42.4453 112.037 42.4453 110.503C42.4453 109.306 42.4453 105.699 42.4453 105.699C42.4453 105.699 45.7946 105.699 47.2502 105.699C49.9037 105.699 52.055 107.85 52.055 110.503C52.055 113.157 49.9037 115.308 47.2502 115.308Z" fill="black"/>
<path d="M76.0778 105.699C77.1976 105.699 80.8826 105.699 80.8826 105.699C80.8826 105.699 80.8826 108.97 80.8826 110.504C80.8826 111.702 80.8826 115.309 80.8826 115.309C80.8826 115.309 77.5342 115.309 76.0778 115.309C73.4232 115.309 71.2729 113.157 71.2729 110.504C71.2729 107.851 73.4232 105.699 76.0778 105.699Z" fill="black"/>
<path d="M90.4876 105.699H80.8779V115.309H90.4876V105.699Z" fill="black"/>
<path d="M109.704 115.305H119.313V105.696C114.006 105.696 109.704 109.998 109.704 115.305Z" fill="black"/>
<path d="M124.121 115.308C123.001 115.308 119.317 115.308 119.317 115.308C119.317 115.308 119.317 112.038 119.317 110.504C119.317 109.306 119.317 105.699 119.317 105.699C119.317 105.699 122.666 105.699 124.121 105.699C126.775 105.699 128.926 107.85 128.926 110.504C128.926 113.158 126.775 115.308 124.121 115.308Z" fill="black"/>
<path d="M176.972 115.306H186.582V105.696C181.274 105.696 176.972 109.998 176.972 115.306Z" fill="black"/>
<path d="M186.591 105.696V115.305H196.201C196.201 109.998 191.898 105.696 186.591 105.696Z" fill="black"/>
<path d="M244.247 105.699H234.637V115.308H244.247V105.699Z" fill="black"/>
<path d="M13.6096 115.309H4V124.919H13.6096V115.309Z" fill="black"/>
<path d="M23.218 115.309H13.6084V124.918H23.218V115.309Z" fill="black"/>
<path d="M32.8343 115.309H23.2246V124.918H32.8343V115.309Z" fill="black"/>
<path d="M42.4369 115.309H32.8271V124.918H42.4369V115.309Z" fill="black"/>
<path d="M66.4625 115.309C69.1162 115.309 71.2673 117.46 71.2673 120.114C71.2673 122.768 69.1162 124.918 66.4625 124.918C63.8089 124.918 61.6577 122.768 61.6577 120.114C61.6577 117.46 63.8089 115.309 66.4625 115.309Z" fill="black"/>
<path d="M90.4876 115.309H80.8779V124.918H90.4876V115.309Z" fill="black"/>
<path d="M109.705 120.114C109.705 118.994 109.705 115.309 109.705 115.309C109.705 115.309 112.977 115.309 114.51 115.309C115.708 115.309 119.315 115.309 119.315 115.309C119.315 115.309 119.315 118.658 119.315 120.114C119.315 122.768 117.163 124.919 114.51 124.919C111.857 124.919 109.705 122.768 109.705 120.114Z" fill="black"/>
<path d="M133.736 115.309C134.856 115.309 138.541 115.309 138.541 115.309C138.541 115.309 138.541 118.58 138.541 120.114C138.541 121.312 138.541 124.919 138.541 124.919C138.541 124.919 135.192 124.919 133.736 124.919C131.082 124.919 128.931 122.767 128.931 120.114C128.931 117.461 131.082 115.309 133.736 115.309Z" fill="black"/>
<path d="M148.147 115.309H138.537V124.918H148.147V115.309Z" fill="black"/>
<path d="M157.761 115.309H148.152V124.918H157.761V115.309Z" fill="black"/>
<path d="M167.362 115.309H157.752V124.919H167.362V115.309Z" fill="black"/>
<path d="M176.978 115.309H167.369V124.919H176.978V115.309Z" fill="black"/>
<path d="M186.583 115.309H176.973V124.919H186.583V115.309Z" fill="black"/>
<path d="M196.199 115.309H186.589V124.918H196.199V115.309Z" fill="black"/>
<path d="M200.999 124.918C199.879 124.918 196.195 124.918 196.195 124.918C196.195 124.918 196.195 121.648 196.195 120.114C196.195 118.916 196.195 115.309 196.195 115.309C196.195 115.309 199.544 115.309 200.999 115.309C203.653 115.309 205.804 117.46 205.804 120.114C205.804 122.768 203.653 124.918 200.999 124.918Z" fill="black"/>
<path d="M220.222 115.309C221.342 115.309 225.026 115.309 225.026 115.309C225.026 115.309 225.026 118.58 225.026 120.114C225.026 121.312 225.026 124.918 225.026 124.918C225.026 124.918 221.678 124.918 220.222 124.918C217.567 124.918 215.417 122.767 215.417 120.114C215.417 117.461 217.567 115.309 220.222 115.309Z" fill="black"/>
<path d="M234.631 115.309H225.021V124.919H234.631V115.309Z" fill="black"/>
<path d="M244.248 115.304H234.638V124.914C239.946 124.914 244.248 120.612 244.248 115.304Z" fill="black"/>
<path d="M13.6096 124.939H4V134.548H13.6096V124.939Z" fill="black"/>
<path d="M32.8318 134.553V124.944H23.2222C23.2222 130.25 27.5245 134.553 32.8318 134.553Z" fill="black"/>
<path d="M42.4369 124.943H32.8271V134.553C38.1344 134.553 42.4369 130.249 42.4369 124.943Z" fill="black"/>
<path d="M61.6614 129.743C61.6614 130.863 61.6614 134.548 61.6614 134.548C61.6614 134.548 58.3904 134.548 56.8566 134.548C55.6587 134.548 52.0518 134.548 52.0518 134.548C52.0518 134.548 52.0518 131.199 52.0518 129.743C52.0519 127.089 54.203 124.939 56.8565 124.939C59.5101 124.939 61.6614 127.089 61.6614 129.743Z" fill="black"/>
<path d="M90.4876 124.939H80.8779V134.548H90.4876V124.939Z" fill="black"/>
<path d="M95.2989 134.548C94.179 134.548 90.4941 134.548 90.4941 134.548C90.4941 134.548 90.4941 131.277 90.4941 129.744C90.4941 128.545 90.4941 124.939 90.4941 124.939C90.4941 124.939 93.8433 124.939 95.2989 124.939C97.9524 124.939 100.104 127.089 100.104 129.744C100.104 132.397 97.9524 134.548 95.2989 134.548Z" fill="black"/>
<path d="M124.121 124.939C126.775 124.939 128.926 127.09 128.926 129.744C128.926 132.397 126.775 134.549 124.121 134.549C121.468 134.549 119.317 132.397 119.317 129.744C119.317 127.09 121.468 124.939 124.121 124.939Z" fill="black"/>
<path d="M148.147 124.939H138.537V134.548H148.147V124.939Z" fill="black"/>
<path d="M157.752 129.743C157.752 128.623 157.752 124.939 157.752 124.939C157.752 124.939 161.024 124.939 162.557 124.939C163.756 124.939 167.362 124.939 167.362 124.939C167.362 124.939 167.362 128.288 167.362 129.743C167.362 132.396 165.211 134.548 162.557 134.548C159.904 134.548 157.752 132.396 157.752 129.743Z" fill="black"/>
<path d="M196.199 124.939H186.589V134.548H196.199V124.939Z" fill="black"/>
<path d="M215.41 129.743C215.41 130.863 215.41 134.548 215.41 134.548C215.41 134.548 212.14 134.548 210.605 134.548C209.408 134.548 205.801 134.548 205.801 134.548C205.801 134.548 205.801 131.199 205.801 129.743C205.801 127.089 207.952 124.939 210.605 124.939C213.259 124.939 215.41 127.089 215.41 129.743Z" fill="black"/>
<path d="M234.631 124.939H225.021V134.548H234.631V124.939Z" fill="black"/>
<path d="M13.6096 134.538H4V144.148H13.6096V134.538Z" fill="black"/>
<path d="M42.4478 144.151H52.0574V134.541C46.7502 134.541 42.4478 138.843 42.4478 144.151Z" fill="black"/>
<path d="M61.6614 134.538H52.0518V144.148H61.6614V134.538Z" fill="black"/>
<path d="M71.2673 134.538H61.6577V144.148H71.2673V134.538Z" fill="black"/>
<path d="M80.8826 134.538H71.2729V144.148H80.8826V134.538Z" fill="black"/>
<path d="M90.4867 134.541H80.877V144.151C86.1842 144.151 90.4867 139.849 90.4867 134.541Z" fill="black"/>
<path d="M109.71 139.343C109.71 140.463 109.71 144.148 109.71 144.148C109.71 144.148 106.439 144.148 104.905 144.148C103.708 144.148 100.1 144.148 100.1 144.148C100.1 144.148 100.1 140.799 100.1 139.343C100.1 136.69 102.252 134.538 104.905 134.538C107.559 134.538 109.71 136.69 109.71 139.343Z" fill="black"/>
<path d="M148.147 134.538H138.537V144.148H148.147V134.538Z" fill="black"/>
<path d="M148.143 134.541V144.151H157.753C157.753 138.843 153.45 134.541 148.143 134.541Z" fill="black"/>
<path d="M176.972 144.151H186.582V134.542C181.274 134.542 176.972 138.844 176.972 144.151Z" fill="black"/>
<path d="M196.199 134.538H186.589V144.148H196.199V134.538Z" fill="black"/>
<path d="M205.804 134.538H196.195V144.147H205.804V134.538Z" fill="black"/>
<path d="M215.408 134.541H205.799V144.151C211.106 144.151 215.408 139.849 215.408 134.541Z" fill="black"/>
<path d="M234.63 144.151V134.541H225.02C225.02 139.849 229.322 144.151 234.63 144.151Z" fill="black"/>
<path d="M234.638 134.541V144.151H244.248C244.248 138.843 239.946 134.541 234.638 134.541Z" fill="black"/>
<path d="M13.6096 144.149H4V153.759H13.6096V144.149Z" fill="black"/>
<path d="M28.0294 144.15C29.1494 144.15 32.8343 144.15 32.8343 144.15C32.8343 144.15 32.8343 147.42 32.8343 148.955C32.8343 150.152 32.8343 153.76 32.8343 153.76C32.8343 153.76 29.4859 153.76 28.0294 153.76C25.3749 153.76 23.2246 151.607 23.2246 148.955C23.2246 146.301 25.3749 144.15 28.0294 144.15Z" fill="black"/>
<path d="M42.4369 144.15H32.8271V153.76H42.4369V144.15Z" fill="black"/>
<path d="M52.0574 144.153H42.4478V153.762C47.755 153.762 52.0574 149.46 52.0574 144.153Z" fill="black"/>
<path d="M95.2989 144.15C96.4188 144.15 100.104 144.15 100.104 144.15C100.104 144.15 100.104 147.42 100.104 148.955C100.104 150.152 100.104 153.759 100.104 153.759C100.104 153.759 96.7554 153.759 95.2989 153.759C92.6444 153.759 90.4941 151.607 90.4941 148.955C90.4941 146.301 92.6444 144.15 95.2989 144.15Z" fill="black"/>
<path d="M109.71 144.15H100.1V153.759H109.71V144.15Z" fill="black"/>
<path d="M128.926 148.955C128.926 150.074 128.926 153.759 128.926 153.759C128.926 153.759 125.655 153.759 124.121 153.759C122.924 153.759 119.317 153.759 119.317 153.759C119.317 153.759 119.317 150.41 119.317 148.954C119.317 146.301 121.468 144.15 124.121 144.15C126.775 144.15 128.926 146.301 128.926 148.955Z" fill="black"/>
<path d="M148.148 153.763V144.153H138.538C138.538 149.461 142.84 153.763 148.148 153.763Z" fill="black"/>
<path d="M157.761 144.15H148.152V153.76H157.761V144.15Z" fill="black"/>
<path d="M167.362 144.15H157.752V153.759H167.362V144.15Z" fill="black"/>
<path d="M176.978 144.15H167.369V153.759H176.978V144.15Z" fill="black"/>
<path d="M186.583 144.149H176.973V153.759H186.583V144.149Z" fill="black"/>
<path d="M196.199 144.15H186.589V153.76H196.199V144.15Z" fill="black"/>
<path d="M205.804 144.15H196.195V153.759H205.804V144.15Z" fill="black"/>
<path d="M234.637 148.955C234.637 147.835 234.637 144.15 234.637 144.15C234.637 144.15 237.909 144.15 239.442 144.15C240.64 144.15 244.247 144.15 244.247 144.15C244.247 144.15 244.247 147.499 244.247 148.955C244.247 151.608 242.096 153.76 239.442 153.76C236.789 153.76 234.637 151.608 234.637 148.955Z" fill="black"/>
<path d="M4 158.565C4 157.445 4 153.76 4 153.76C4 153.76 7.27115 153.76 8.80483 153.76C10.0027 153.76 13.6096 153.76 13.6096 153.76C13.6096 153.76 13.6096 157.109 13.6096 158.565C13.6096 161.218 11.4583 163.37 8.80483 163.37C6.1512 163.37 4 161.218 4 158.565Z" fill="black"/>
<path d="M56.8566 153.759C57.9764 153.759 61.6614 153.759 61.6614 153.759C61.6614 153.759 61.6614 157.031 61.6614 158.564C61.6614 159.761 61.6614 163.369 61.6614 163.369C61.6614 163.369 58.313 163.369 56.8566 163.369C54.202 163.369 52.0518 161.217 52.0518 158.564C52.0518 155.912 54.202 153.759 56.8566 153.759Z" fill="black"/>
<path d="M66.4625 163.369C65.3425 163.369 61.6577 163.369 61.6577 163.369C61.6577 163.369 61.6577 160.099 61.6577 158.565C61.6577 157.367 61.6577 153.76 61.6577 153.76C61.6577 153.76 65.0069 153.76 66.4625 153.76C69.116 153.76 71.2673 155.911 71.2673 158.565C71.2673 161.218 69.116 163.369 66.4625 163.369Z" fill="black"/>
<path d="M90.4876 158.564C90.4876 159.684 90.4876 163.369 90.4876 163.369C90.4876 163.369 87.2166 163.369 85.6827 163.369C84.485 163.369 80.8779 163.369 80.8779 163.369C80.8779 163.369 80.8779 160.02 80.8779 158.564C80.878 155.911 83.0291 153.759 85.6826 153.759C88.3362 153.759 90.4876 155.911 90.4876 158.564Z" fill="black"/>
<path d="M100.1 158.565C100.1 157.444 100.1 153.76 100.1 153.76C100.1 153.76 103.372 153.76 104.905 153.76C106.102 153.76 109.71 153.76 109.71 153.76C109.71 153.76 109.71 157.109 109.71 158.565C109.71 161.218 107.559 163.369 104.905 163.369C102.252 163.369 100.1 161.218 100.1 158.565Z" fill="black"/>
<path d="M128.928 163.372V153.762H119.318C119.318 159.07 123.62 163.372 128.928 163.372Z" fill="black"/>
<path d="M128.929 153.762V163.372H138.539C138.539 158.064 134.237 153.762 128.929 153.762Z" fill="black"/>
<path d="M157.753 163.372V153.763H148.143C148.143 159.07 152.445 163.372 157.753 163.372Z" fill="black"/>
<path d="M167.362 153.759H157.752V163.369H167.362V153.759Z" fill="black"/>
<path d="M176.978 153.76H167.369V163.369H176.978V153.76Z" fill="black"/>
<path d="M186.583 153.76H176.973V163.369H186.583V153.76Z" fill="black"/>
<path d="M196.199 153.76H186.589V163.369H196.199V153.76Z" fill="black"/>
<path d="M205.804 153.76H196.195V163.369H205.804V153.76Z" fill="black"/>
<path d="M220.222 153.76C222.875 153.76 225.026 155.911 225.026 158.565C225.026 161.218 222.875 163.369 220.222 163.369C217.568 163.369 215.417 161.218 215.417 158.565C215.417 155.911 217.568 153.76 220.222 153.76Z" fill="black"/>
<path d="M90.4867 172.984V163.374H80.877C80.877 168.682 85.1793 172.984 90.4867 172.984Z" fill="black"/>
<path d="M90.4951 163.374V172.984H100.105C100.105 167.676 95.8023 163.374 90.4951 163.374Z" fill="black"/>
<path d="M138.541 163.371H128.931V172.981H138.541V163.371Z" fill="black"/>
<path d="M167.362 163.371H157.752V172.981H167.362V163.371Z" fill="black"/>
<path d="M205.804 163.371H196.195V172.981H205.804V163.371Z" fill="black"/>
<path d="M210.605 172.981C209.485 172.981 205.801 172.981 205.801 172.981C205.801 172.981 205.801 169.71 205.801 168.176C205.801 166.978 205.801 163.371 205.801 163.371C205.801 163.371 209.15 163.371 210.605 163.371C213.259 163.371 215.41 165.523 215.41 168.176C215.41 170.829 213.259 172.981 210.605 172.981Z" fill="black"/>
<path d="M100.105 182.582V172.972H90.4951C90.4951 178.28 94.7973 182.582 100.105 182.582Z" fill="black"/>
<path d="M109.71 172.97H100.1V182.58H109.71V172.97Z" fill="black"/>
<path d="M119.315 172.971H109.705V182.58H119.315V172.971Z" fill="black"/>
<path d="M128.926 172.97H119.317V182.58H128.926V172.97Z" fill="black"/>
<path d="M138.541 172.971H128.931V182.58H138.541V172.971Z" fill="black"/>
<path d="M138.538 172.972V182.582H148.148C148.148 177.274 143.845 172.972 138.538 172.972Z" fill="black"/>
<path d="M167.362 172.971H157.752V182.58H167.362V172.971Z" fill="black"/>
<path d="M181.778 172.971C184.432 172.971 186.583 175.122 186.583 177.776C186.583 180.43 184.432 182.58 181.778 182.58C179.125 182.58 176.973 180.43 176.973 177.776C176.973 175.122 179.125 172.971 181.778 172.971Z" fill="black"/>
<path d="M205.804 172.971H196.195V182.58H205.804V172.971Z" fill="black"/>
<path d="M220.222 172.971C221.342 172.971 225.026 172.971 225.026 172.971C225.026 172.971 225.026 176.242 225.026 177.775C225.026 178.973 225.026 182.58 225.026 182.58C225.026 182.58 221.678 182.58 220.222 182.58C217.567 182.58 215.417 180.429 215.417 177.775C215.417 175.123 217.567 172.971 220.222 172.971Z" fill="black"/>
<path d="M234.631 172.971H225.021V182.58H234.631V172.971Z" fill="black"/>
<path d="M239.442 182.58C238.322 182.58 234.637 182.58 234.637 182.58C234.637 182.58 234.637 179.309 234.637 177.775C234.637 176.578 234.637 172.971 234.637 172.971C234.637 172.971 237.986 172.971 239.442 172.971C242.096 172.971 244.247 175.122 244.247 177.775C244.247 180.429 242.096 182.58 239.442 182.58Z" fill="black"/>
<path d="M90.4876 187.387C90.4876 188.507 90.4876 192.192 90.4876 192.192C90.4876 192.192 87.2166 192.192 85.6827 192.191C84.485 192.192 80.8779 192.191 80.8779 192.191C80.8779 192.191 80.8779 188.843 80.8779 187.387C80.878 184.734 83.0291 182.582 85.6826 182.582C88.3362 182.582 90.4876 184.734 90.4876 187.387Z" fill="black"/>
<path d="M119.315 182.582H109.705V192.192H119.315V182.582Z" fill="black"/>
<path d="M138.537 187.387C138.537 186.267 138.537 182.582 138.537 182.582C138.537 182.582 141.809 182.582 143.342 182.582C144.539 182.582 148.147 182.582 148.147 182.582C148.147 182.582 148.147 185.931 148.147 187.387C148.147 190.041 145.996 192.192 143.342 192.192C140.689 192.192 138.537 190.041 138.537 187.387Z" fill="black"/>
<path d="M167.362 182.583H157.752V192.192H167.362V182.583Z" fill="black"/>
<path d="M205.804 182.582H196.195V192.192H205.804V182.582Z" fill="black"/>
<path d="M210.605 192.192C209.485 192.192 205.801 192.192 205.801 192.192C205.801 192.192 205.801 188.921 205.801 187.387C205.801 186.19 205.801 182.582 205.801 182.582C205.801 182.582 209.15 182.582 210.605 182.582C213.259 182.582 215.41 184.734 215.41 187.387C215.41 190.041 213.259 192.192 210.605 192.192Z" fill="black"/>
<path d="M90.4876 192.192H80.8779V201.802H90.4876V192.192Z" fill="black"/>
<path d="M95.2989 201.802C94.179 201.802 90.4941 201.802 90.4941 201.802C90.4941 201.802 90.4941 198.531 90.4941 196.997C90.4941 195.799 90.4941 192.192 90.4941 192.192C90.4941 192.192 93.8433 192.192 95.2989 192.192C97.9524 192.192 100.104 194.344 100.104 196.997C100.104 199.651 97.9524 201.802 95.2989 201.802Z" fill="black"/>
<path d="M109.705 196.997C109.705 195.877 109.705 192.193 109.705 192.193C109.705 192.193 112.977 192.193 114.51 192.193C115.708 192.193 119.315 192.193 119.315 192.193C119.315 192.193 119.315 195.542 119.315 196.997C119.315 199.651 117.163 201.802 114.51 201.802C111.857 201.802 109.705 199.651 109.705 196.997Z" fill="black"/>
<path d="M152.957 192.192C154.077 192.192 157.761 192.192 157.761 192.192C157.761 192.192 157.761 195.464 157.761 196.997C157.761 198.195 157.761 201.802 157.761 201.802C157.761 201.802 154.413 201.802 152.957 201.802C150.302 201.802 148.152 199.65 148.152 196.997C148.152 194.345 150.302 192.192 152.957 192.192Z" fill="black"/>
<path d="M167.362 192.193H157.752V201.802H167.362V192.193Z" fill="black"/>
<path d="M176.978 192.192H167.369V201.802H176.978V192.192Z" fill="black"/>
<path d="M186.583 192.192H176.973V201.802H186.583V192.192Z" fill="black"/>
<path d="M196.199 192.192H186.589V201.802H196.199V192.192Z" fill="black"/>
<path d="M205.804 192.192H196.195V201.802H205.804V192.192Z" fill="black"/>
<path d="M215.418 201.803H225.028V192.193C219.721 192.193 215.418 196.495 215.418 201.803Z" fill="black"/>
<path d="M234.631 192.193H225.021V201.802H234.631V192.193Z" fill="black"/>
<path d="M234.638 192.193V201.803H244.248C244.248 196.496 239.946 192.193 234.638 192.193Z" fill="black"/>
<path d="M90.4876 201.804H80.8779V211.414H90.4876V201.804Z" fill="black"/>
<path d="M124.121 201.804C125.241 201.804 128.926 201.804 128.926 201.804C128.926 201.804 128.926 205.076 128.926 206.609C128.926 207.807 128.926 211.414 128.926 211.414C128.926 211.414 125.578 211.414 124.121 211.414C121.467 211.414 119.317 209.262 119.317 206.609C119.317 203.957 121.467 201.804 124.121 201.804Z" fill="black"/>
<path d="M128.929 201.805V211.415H138.539C138.539 206.107 134.237 201.805 128.929 201.805Z" fill="black"/>
<path d="M176.979 211.415V201.805H167.37C167.37 207.113 171.672 211.415 176.979 211.415Z" fill="black"/>
<path d="M186.582 201.805H176.972V211.415C182.28 211.415 186.582 207.113 186.582 201.805Z" fill="black"/>
<path d="M205.804 211.415V201.805H196.195C196.195 207.113 200.498 211.415 205.804 211.415Z" fill="black"/>
<path d="M215.41 201.804H205.801V211.414H215.41V201.804Z" fill="black"/>
<path d="M225.026 201.804H215.417V211.414H225.026V201.804Z" fill="black"/>
<path d="M234.631 201.804H225.021V211.414H234.631V201.804Z" fill="black"/>
<path d="M244.247 201.804H234.637V211.414H244.247V201.804Z" fill="black"/>
<path d="M80.8779 216.219C80.8779 215.099 80.8779 211.414 80.8779 211.414C80.8779 211.414 84.1491 211.414 85.6827 211.414C86.8806 211.414 90.4876 211.414 90.4876 211.414C90.4876 211.414 90.4876 214.764 90.4876 216.219C90.4876 218.872 88.3362 221.024 85.6827 221.024C83.0291 221.024 80.8779 218.872 80.8779 216.219Z" fill="black"/>
<path d="M138.541 211.415H128.931V221.025H138.541V211.415Z" fill="black"/>
<path d="M143.342 221.024C142.222 221.024 138.537 221.024 138.537 221.024C138.537 221.024 138.537 217.753 138.537 216.219C138.537 215.022 138.537 211.415 138.537 211.415C138.537 211.415 141.886 211.415 143.342 211.415C145.996 211.415 148.147 213.566 148.147 216.219C148.147 218.873 145.996 221.024 143.342 221.024Z" fill="black"/>
<path d="M167.362 216.22C167.362 217.34 167.362 221.025 167.362 221.025C167.362 221.025 164.092 221.025 162.557 221.024C161.36 221.025 157.752 221.024 157.752 221.024C157.752 221.024 157.752 217.675 157.752 216.22C157.753 213.566 159.904 211.415 162.557 211.415C165.211 211.415 167.362 213.566 167.362 216.22Z" fill="black"/>
<path d="M215.41 211.415H205.801V221.024H215.41V211.415Z" fill="black"/>
<path d="M225.029 211.415H215.419V221.024C220.727 221.024 225.029 216.722 225.029 211.415Z" fill="black"/>
<path d="M244.248 211.415H234.638V221.024H244.248V211.415Z" fill="black"/>
<path d="M100.104 225.83C100.104 226.95 100.104 230.635 100.104 230.635C100.104 230.635 96.8328 230.635 95.2989 230.635C94.1011 230.635 90.4941 230.635 90.4941 230.635C90.4941 230.635 90.4941 227.286 90.4941 225.83C90.4942 223.177 92.6453 221.026 95.2988 221.026C97.9523 221.026 100.104 223.177 100.104 225.83Z" fill="black"/>
<path d="M119.318 230.636H128.928V221.027C123.62 221.027 119.318 225.329 119.318 230.636Z" fill="black"/>
<path d="M138.539 221.027H128.929V230.636C134.237 230.636 138.539 226.334 138.539 221.027Z" fill="black"/>
<path d="M148.143 230.636H157.753V221.026C152.445 221.027 148.143 225.329 148.143 230.636Z" fill="black"/>
<path d="M167.362 221.026H157.752V230.635H167.362V221.026Z" fill="black"/>
<path d="M176.978 221.026H167.369V230.635H176.978V221.026Z" fill="black"/>
<path d="M186.583 221.026H176.973V230.635H186.583V221.026Z" fill="black"/>
<path d="M196.199 221.026H186.589V230.635H196.199V221.026Z" fill="black"/>
<path d="M205.804 221.026H196.195V230.635H205.804V221.026Z" fill="black"/>
<path d="M215.41 221.026H205.801V230.635H215.41V221.026Z" fill="black"/>
<path d="M244.248 221.026H234.638V230.635H244.248V221.026Z" fill="black"/>
<path d="M85.6827 230.638C86.8027 230.638 90.4876 230.638 90.4876 230.638C90.4876 230.638 90.4876 233.909 90.4876 235.442C90.4876 236.64 90.4876 240.247 90.4876 240.247C90.4876 240.247 87.1393 240.247 85.6827 240.247C83.0282 240.247 80.8779 238.096 80.8779 235.442C80.8779 232.79 83.0282 230.638 85.6827 230.638Z" fill="black"/>
<path d="M100.104 230.638H90.4941V240.247H100.104V230.638Z" fill="black"/>
<path d="M104.905 240.247C103.785 240.247 100.1 240.247 100.1 240.247C100.1 240.247 100.1 236.976 100.1 235.442C100.1 234.245 100.1 230.637 100.1 230.637C100.1 230.637 103.449 230.637 104.905 230.637C107.559 230.637 109.71 232.789 109.71 235.442C109.71 238.096 107.559 240.247 104.905 240.247Z" fill="black"/>
<path d="M119.317 235.442C119.317 234.322 119.317 230.638 119.317 230.638C119.317 230.638 122.587 230.638 124.121 230.638C125.319 230.638 128.926 230.638 128.926 230.638C128.926 230.638 128.926 233.987 128.926 235.442C128.926 238.096 126.775 240.247 124.121 240.247C121.468 240.247 119.317 238.096 119.317 235.442Z" fill="black"/>
<path d="M143.342 230.638C144.462 230.638 148.147 230.638 148.147 230.638C148.147 230.638 148.147 233.909 148.147 235.442C148.147 236.64 148.147 240.247 148.147 240.247C148.147 240.247 144.798 240.247 143.342 240.247C140.688 240.247 138.537 238.096 138.537 235.442C138.537 232.79 140.688 230.638 143.342 230.638Z" fill="black"/>
<path d="M157.753 230.638H148.143V240.248C153.45 240.248 157.753 235.946 157.753 230.638Z" fill="black"/>
<path d="M186.582 240.248V230.638H176.972C176.972 235.946 181.274 240.248 186.582 240.248Z" fill="black"/>
<path d="M196.199 230.638H186.589V240.247H196.199V230.638Z" fill="black"/>
<path d="M205.804 230.638H196.195V240.247H205.804V230.638Z" fill="black"/>
<path d="M215.41 230.638H205.801V240.247H215.41V230.638Z" fill="black"/>
<path d="M225.028 230.637H215.418V240.247H225.028V230.637Z" fill="black"/>
<path d="M234.631 230.637H225.022V240.247H234.631V230.637Z" fill="black"/>
<path d="M244.25 230.638H234.641V240.248C239.948 240.248 244.25 235.946 244.25 230.638Z" fill="black"/>
<path d="M48.3018 0H26.9659C16.5676 0 7.75824 6.87004 4.94175 16.2599C4.65048 17.2313 4.42311 18.2295 4.26503 19.2499C4.09081 20.376 4 21.529 4 22.7028V44.5453C4 57.0698 14.3054 67.2548 26.9659 67.2548L37.6338 67.2568L48.3018 67.2541C60.9615 67.2541 71.2676 57.0692 71.2676 44.5446V22.7028C71.2676 10.1843 60.9622 0 48.3018 0ZM61.1775 44.5453C61.1775 51.5034 55.4019 57.1647 48.2991 57.1647L37.6338 57.1667L26.9685 57.164C19.8657 57.164 14.0901 51.5027 14.0901 44.5453V22.7028C14.0901 20.5294 14.6538 18.4831 15.646 16.6951C16.6012 14.9751 17.9526 13.4958 19.5798 12.3759C21.6718 10.9357 24.2193 10.0901 26.9652 10.0901H48.3018C55.4019 10.0901 61.1775 15.748 61.1775 22.7028V44.5453Z" fill="black"/>
<path d="M221.274 0.0100098H199.938C189.54 0.0100098 180.731 6.88005 177.914 16.2699C177.623 17.2413 177.396 18.2395 177.238 19.26C177.063 20.3861 176.972 21.539 176.972 22.7128V44.5553C176.972 57.0798 187.278 67.2648 199.938 67.2648L210.606 67.2668L221.274 67.2642C233.934 67.2642 244.24 57.0791 244.24 44.5546V22.7128C244.24 10.1943 233.935 0.0100098 221.274 0.0100098ZM234.15 44.5553C234.15 51.5135 228.374 57.1746 221.271 57.1746L210.606 57.1767L199.941 57.174C192.838 57.174 187.063 51.5128 187.063 44.5553V22.7128C187.063 20.5394 187.626 18.4931 188.618 16.7051C189.574 14.9851 190.925 13.5059 192.553 12.3859C194.644 10.9457 197.192 10.1002 199.937 10.1002H221.274C228.374 10.1002 234.15 15.7581 234.15 22.7128V44.5553Z" fill="black"/>
<path d="M48.3018 172.986H26.9659C16.5676 172.986 7.75824 179.855 4.94175 189.245C4.65048 190.217 4.42311 191.215 4.26503 192.235C4.09081 193.362 4 194.514 4 195.689V217.531C4 230.055 14.3054 240.24 26.9659 240.24L37.6338 240.242L48.3018 240.239C60.9615 240.239 71.2676 230.055 71.2676 217.53V195.689C71.2676 183.169 60.9622 172.986 48.3018 172.986ZM61.1775 217.531C61.1775 224.488 55.4019 230.15 48.2991 230.15L37.6338 230.152L26.9685 230.15C19.8657 230.15 14.0901 224.488 14.0901 217.531V195.689C14.0901 193.515 14.6538 191.469 15.646 189.68C16.6012 187.961 17.9526 186.482 19.5798 185.362C21.6718 183.921 24.2193 183.075 26.9652 183.075H48.3018C55.4019 183.075 61.1775 188.734 61.1775 195.689V217.531Z" fill="black"/>
<path d="M31.1044 48.0491C26.7542 48.0491 23.2153 44.5804 23.2153 40.3207V26.9446C23.2153 25.6139 23.5614 24.3616 24.167 23.2658C24.752 22.2112 25.58 21.3049 26.5771 20.621C27.858 19.7394 29.4194 19.2202 31.1001 19.2202H44.1675C48.5137 19.2202 52.0524 22.6849 52.0524 26.9444V40.3204C52.0524 44.5799 48.514 48.0489 44.1675 48.0489H37.6339L31.1044 48.0491Z" fill="black"/>
<path d="M204.08 48.0496C199.729 48.0496 196.19 44.5809 196.19 40.3212V26.9451C196.19 25.6144 196.536 24.3621 197.142 23.2663C197.727 22.2117 198.555 21.3054 199.552 20.6215C200.834 19.74 202.394 19.2207 204.075 19.2207H217.143C221.488 19.2207 225.027 22.6853 225.027 26.9448V40.321C225.027 44.5804 221.489 48.0493 217.143 48.0493H210.609L204.08 48.0496Z" fill="black"/>
<path d="M31.1044 221.025C26.7542 221.025 23.2153 217.557 23.2153 213.297V199.921C23.2153 198.59 23.5614 197.338 24.167 196.242C24.752 195.188 25.58 194.281 26.5771 193.597C27.858 192.715 29.4194 192.196 31.1001 192.196H44.1675C48.5137 192.196 52.0524 195.661 52.0524 199.921V213.296C52.0524 217.556 48.514 221.025 44.1675 221.025H37.6339H31.1044Z" fill="black"/>
</g>
<defs>
<filter id="filter0_d_2005_43" x="0" y="0" width="248.25" height="248.248" filterUnits="userSpaceOnUse" color-interpolation-filters="sRGB">
<feFlood flood-opacity="0" result="BackgroundImageFix"/>
<feColorMatrix in="SourceAlpha" type="matrix" values="0 0 0 0 0 0 0 0 0 0 0 0 0 0 0 0 0 0 127 0" result="hardAlpha"/>
<feOffset dy="4"/>
<feGaussianBlur stdDeviation="2"/>
<feComposite in2="hardAlpha" operator="out"/>
<feColorMatrix type="matrix" values="0 0 0 0 0 0 0 0 0 0 0 0 0 0 0 0 0 0 0.25 0"/>
<feBlend mode="normal" in2="BackgroundImageFix" result="effect1_dropShadow_2005_43"/>
<feBlend mode="normal" in="SourceGraphic" in2="effect1_dropShadow_2005_43" result="shape"/>
</filter>
</defs>
</svg>
