<?xml version="1.0" encoding="utf-8"?><svg viewBox="0 0 502.66 502.66" xmlns="http://www.w3.org/2000/svg" xmlns:xlink="http://www.w3.org/1999/xlink"><style>:root>svg{display:none}:root>svg:target{display:block}</style><svg viewBox="0 0 40 40" id="back" xmlns="http://www.w3.org/2000/svg"><path d="M39.46 35.265a.826.826 0 0 1 0 1.168l-2.92 2.92a.826.826 0 0 1-1.168 0l-16.88-16.88a.826.826 0 0 1 0-1.168l2.92-2.92a.826.826 0 0 1 1.168 0l16.88 16.88Z"/><path d="M18.145 0c10.02 0 18.144 8.124 18.144 18.145 0 10.02-8.124 18.144-18.145 18.144C8.125 36.29 0 28.165 0 18.144 0 8.125 8.124 0 18.145 0Z"/><circle cx="18.144" cy="18.144" r="12.546"/></svg><svg viewBox="0 0 28 28" id="btn-telegram" xmlns="http://www.w3.org/2000/svg"><path d="M21 0a7 7 0 0 1 7 7v14a7 7 0 0 1-7 7H7a7 7 0 0 1-7-7V7a7 7 0 0 1 7-7h14Zm-.302 10.065c.34-2.063-.34-2.242-2.561-1.31-.847.356-6.98 2.927-11.718 5.036-1.182.526-1.47 1.073-.254 1.496.316.11 1.128.397 1.959.639 1.1.32 1.713.119 2.35-.32a2442 2442 0 0 1 6.134-4.124c.269-.18.56.19.328.415a1321.647 1321.647 0 0 0-4.402 4.258c-.977.967-.198 1.458.366 1.866.62.448 3.47 2.356 4.036 2.733 1.174.784 1.92.568 2.253-1.243.561-3.055 1.265-7.964 1.51-9.446Z"/></svg><svg viewBox="0 0 28 28" id="btn-vk" xmlns="http://www.w3.org/2000/svg"><path d="M21 0a7 7 0 0 1 7 7v14a7 7 0 0 1-7 7H7a7 7 0 0 1-7-7V7a7 7 0 0 1 7-7h14ZM6.3 9.1c.125 6.002 3.126 9.609 8.387 9.609h.3v-3.434c1.932.193 3.394 1.607 3.98 3.434H21.7c-.75-2.732-2.723-4.241-3.954-4.818 1.231-.712 2.963-2.444 3.377-4.791h-2.482c-.539 1.904-2.135 3.636-3.655 3.8V9.1h-2.482v6.656c-1.54-.385-3.482-2.251-3.568-6.656H6.3Z"/></svg><svg viewBox="0 0 28 28" id="btn-youtube" xmlns="http://www.w3.org/2000/svg"><path d="M21 0a7 7 0 0 1 7 7v14a7 7 0 0 1-7 7H7a7 7 0 0 1-7-7V7a7 7 0 0 1 7-7h14Zm-7.055 7.7c-2.357 0-4.571.193-5.75.462-.786.193-1.467.77-1.61 1.655-.143.963-.285 2.31-.285 4.043s.142 3.08.321 4.042c.144.847.822 1.464 1.608 1.657 1.25.269 3.394.46 5.752.46 2.36 0 4.504-.191 5.754-.46.786-.193 1.464-.771 1.608-1.657.142-.962.32-2.349.357-4.042-.072-1.732-.25-3.08-.43-4.043-.142-.846-.82-1.462-1.608-1.655-1.178-.27-3.358-.462-5.717-.462Zm2.43 6.16-4.358 2.695v-5.39l4.358 2.695Z"/></svg><svg viewBox="0 0 46 46" id="delivery" xmlns="http://www.w3.org/2000/svg"><path d="M.018 18.585V30.34a1 1 0 0 0 1 1h43.964a1 1 0 0 0 1-1v-8.767a1 1 0 0 0-.652-.937l-9.36-3.47a1.003 1.003 0 0 1-.26-.143l-8.933-6.818A1 1 0 0 0 26.17 10H1.018a1 1 0 0 0-1 1v7.585Z"/><path d="M3.697 17.83v-3.886a1 1 0 0 1 1-1h20.488a1 1 0 0 1 .612.209l5.02 3.887c.755.583.342 1.79-.611 1.79H4.696a1 1 0 0 1-1-1Z"/><circle cx="8.915" cy="30.113" r="5.887"/><circle cx="37.301" cy="30.113" r="5.887"/></svg><svg viewBox="0 0 502.664 502.664" xml:space="preserve" id="icon" xmlns="http://www.w3.org/2000/svg"><path d="M153.821 358.226 0 274.337v-46.463l153.821-83.414v54.574L46.636 250.523l107.185 53.431v54.272zm26.273 29.358L282.103 115.08h32.227L212.084 387.584h-31.99zm168.749-29.358v-54.272l107.164-52.999-107.164-52.59v-53.927l153.821 83.522v46.183l-153.821 84.083z"/></svg><svg viewBox="0 0 109 30" id="logo" xmlns="http://www.w3.org/2000/svg"><path fill-rule="evenodd" clip-rule="evenodd" d="m16.525 17.855 3.865 6.693a.51.51 0 0 1 0 .51l-2.706 4.688a.51.51 0 0 1-.882 0L4.344 8.168a.51.51 0 0 1 .442-.764h5.412a.51.51 0 0 1 .441.255l5.886 10.196Zm5.293 4.729a.51.51 0 0 1-.882 0l-2.793-4.84a.51.51 0 0 1 0-.508l5.53-9.577a.51.51 0 0 1 .44-.255h5.588a.51.51 0 0 1 .44.764l-8.323 14.416Zm1.298-16.872a.51.51 0 0 1-.441.255h-3.547a.51.51 0 0 0-.441.764l1.772 3.071a.51.51 0 0 1 0 .51l-2.863 4.959a.51.51 0 0 1-.882 0l-5.172-8.959-.063-.108a.51.51 0 0 0-.441-.255H3.357a.51.51 0 0 1-.442-.254L.07.765A.51.51 0 0 1 .51 0h25.02a.51.51 0 0 1 .442.764l-2.856 4.948Zm8.454-.017a.51.51 0 0 1-.441.254H25.54a.51.51 0 0 1-.44-.764l2.846-4.93a.51.51 0 0 1 .44-.255h5.588a.51.51 0 0 1 .441.764l-2.846 4.93Z"/><path d="M39.64 2.707h7.735c3.31 0 5.814.465 7.514 1.394 1.7.93 2.55 2.562 2.55 4.896 0 .94-.153 1.79-.46 2.55-.294.76-.724 1.383-1.291 1.87-.567.487-1.258.805-2.074.952v.17c.827.17 1.575.465 2.244.884.669.408 1.201 1.009 1.598 1.802.408.782.612 1.824.612 3.128 0 1.507-.369 2.799-1.105 3.876-.737 1.076-1.79 1.904-3.162 2.482-1.36.566-2.98.85-4.862.85H39.64V2.707Zm5.27 9.843h3.06c1.53 0 2.59-.238 3.179-.714.59-.487.884-1.201.884-2.142 0-.952-.351-1.632-1.054-2.04-.691-.42-1.79-.629-3.298-.629h-2.77v5.525Zm0 4.182v6.477h3.434c1.587 0 2.692-.306 3.315-.918.623-.612.935-1.434.935-2.465 0-.612-.136-1.15-.408-1.615-.272-.465-.731-.827-1.377-1.088-.635-.26-1.513-.391-2.635-.391H44.91ZM72.62 27.56h-5.27V7.093H60.6V2.707h18.768v4.386H72.62v20.468ZM83.192 2.707h4.743V14.71c0 .59-.011 1.24-.034 1.955a63.306 63.306 0 0 1-.068 2.108c-.023.68-.045 1.275-.068 1.785-.023.51-.045.85-.068 1.02h.102l11.475-18.87h6.306v24.854h-4.691V15.627c0-.635.011-1.326.034-2.074.022-.748.051-1.473.085-2.176l.119-1.819.068-1.037h-.136l-11.526 19.04h-6.34V2.707Z"/></svg><svg viewBox="0 0 36 35" id="logo-fill" xmlns="http://www.w3.org/2000/svg"><path d="M32.597 0H22.185a3.124 3.124 0 0 0-3.123 3.124V15.43c0 .837.335 1.639.931 2.226l4.834 4.76a3.123 3.123 0 0 0 4.396-.01l5.578-5.553c.588-.586.92-1.383.92-2.214V3.124A3.124 3.124 0 0 0 32.597 0Z"/><path d="M3.124 0h10.412a3.124 3.124 0 0 1 3.123 3.124v13.923c0 .829.33 1.623.915 2.209l5.206 5.206a3.124 3.124 0 0 1 0 4.417l-3.912 3.912a3.124 3.124 0 0 1-4.418 0l-6.12-6.12-7.415-7.415A3.123 3.123 0 0 1 0 17.047V3.124A3.124 3.124 0 0 1 3.124 0Z"/></svg><svg viewBox="0 0 36 35" id="logo-mob" xmlns="http://www.w3.org/2000/svg"><path d="M32.597 0H22.185a3.124 3.124 0 0 0-3.123 3.124V15.43c0 .837.335 1.639.931 2.226l4.834 4.76a3.123 3.123 0 0 0 4.396-.01l5.578-5.553c.588-.586.92-1.383.92-2.214V3.124A3.124 3.124 0 0 0 32.597 0Z"/><path d="M3.124 0h10.412a3.124 3.124 0 0 1 3.123 3.124v13.923c0 .829.33 1.623.915 2.209l5.206 5.206a3.124 3.124 0 0 1 0 4.417l-3.912 3.912a3.124 3.124 0 0 1-4.418 0l-6.12-6.12-7.415-7.415A3.123 3.123 0 0 1 0 17.047V3.124A3.124 3.124 0 0 1 3.124 0Z"/></svg><svg viewBox="0 0 39 40" id="park" xmlns="http://www.w3.org/2000/svg"><path d="M.197 29.822a.5.5 0 0 1-.001-.794l12.41-9.514a.5.5 0 0 1 .805.396l.005 3.728a.5.5 0 0 0 .5.5h21.919a2.375 2.375 0 0 1 2.375 2.375v5.756a2.375 2.375 0 0 1-2.375 2.376H13.932a.5.5 0 0 0-.5.5l.006 3.755a.5.5 0 0 1-.803.398L.197 29.822ZM38.221 9.58a.5.5 0 0 1 .002.794l-12.41 9.514a.5.5 0 0 1-.804-.396l-.006-3.727a.5.5 0 0 0-.5-.5H2.19a1.98 1.98 0 0 1-1.98-1.979V6.738a1.98 1.98 0 0 1 1.98-1.98h22.297a.5.5 0 0 0 .5-.5L24.981.502a.5.5 0 0 1 .803-.399L38.222 9.58Z"/></svg></svg>